# Blender v2.80 (sub 75) OBJ File: ''
# www.blender.org
mtllib untitled.mtl
o Cube
v 1.620274 1.088959 1.123128
v 1.620274 1.133902 -0.976391
v 7.867626 -1.170523 1.074761
v 7.989393 -1.296287 -1.025622
v -1.479726 1.088959 1.123128
v -1.479726 1.133902 -0.976391
v -1.479726 -1.170523 1.074761
v -1.479726 -1.125580 -1.024758
vt 0.375000 0.000000
vt 0.625000 0.000000
vt 0.625000 0.250000
vt 0.375000 0.250000
vt 0.375000 0.250000
vt 0.625000 0.250000
vt 0.625000 0.500000
vt 0.375000 0.500000
vt 0.625000 0.750000
vt 0.375000 0.750000
vt 0.625000 0.750000
vt 0.625000 1.000000
vt 0.375000 1.000000
vt 0.125000 0.500000
vt 0.375000 0.500000
vt 0.375000 0.750000
vt 0.125000 0.749999
vt 0.625000 0.500000
vt 0.875000 0.500000
vt 0.875000 0.750000
vn 0.0000 -0.0214 0.9998
vn -0.0091 -0.9998 0.0190
vn -1.0000 0.0000 0.0000
vn 0.0002 0.0211 -0.9998
vn 0.3484 0.9373 -0.0079
vn 0.0000 0.9998 0.0214
usemtl Material
s off
f 1/1/1 5/2/1 7/3/1 3/4/1
f 4/5/2 3/6/2 7/7/2 8/8/2
f 8/8/3 7/7/3 5/9/3 6/10/3
f 6/10/4 2/11/4 4/12/4 8/13/4
f 2/14/5 1/15/5 3/16/5 4/17/5
f 6/18/6 5/19/6 1/20/6 2/11/6
